<svg width="63" height="12" viewBox="0 0 63 12" fill="none" xmlns="http://www.w3.org/2000/svg">
<rect width="63" height="12" rx="2" fill="#B622B7"/>
<path d="M6.33984 9H5.125L5.13281 8.22266H6.33984C6.69141 8.22266 6.98568 8.14583 7.22266 7.99219C7.46224 7.83854 7.64193 7.61849 7.76172 7.33203C7.88411 7.04557 7.94531 6.70443 7.94531 6.30859V6C7.94531 5.69271 7.91016 5.42057 7.83984 5.18359C7.77214 4.94661 7.67057 4.7474 7.53516 4.58594C7.40234 4.42448 7.23828 4.30208 7.04297 4.21875C6.85026 4.13542 6.6276 4.09375 6.375 4.09375H5.10156V3.3125H6.375C6.7526 3.3125 7.09766 3.3763 7.41016 3.50391C7.72266 3.62891 7.99219 3.8099 8.21875 4.04688C8.44792 4.28385 8.6237 4.56771 8.74609 4.89844C8.86849 5.22917 8.92969 5.59896 8.92969 6.00781V6.30859C8.92969 6.71745 8.86849 7.08724 8.74609 7.41797C8.6237 7.7487 8.44792 8.03255 8.21875 8.26953C7.98958 8.50391 7.71615 8.6849 7.39844 8.8125C7.08333 8.9375 6.73047 9 6.33984 9ZM5.66797 3.3125V9H4.6875V3.3125H5.66797ZM9.64062 6.93359V6.84375C9.64062 6.53906 9.6849 6.25651 9.77344 5.99609C9.86198 5.73307 9.98958 5.50521 10.1562 5.3125C10.3255 5.11719 10.5312 4.96615 10.7734 4.85938C11.0182 4.75 11.2943 4.69531 11.6016 4.69531C11.9115 4.69531 12.1875 4.75 12.4297 4.85938C12.6745 4.96615 12.8815 5.11719 13.0508 5.3125C13.2201 5.50521 13.349 5.73307 13.4375 5.99609C13.526 6.25651 13.5703 6.53906 13.5703 6.84375V6.93359C13.5703 7.23828 13.526 7.52083 13.4375 7.78125C13.349 8.04167 13.2201 8.26953 13.0508 8.46484C12.8815 8.65755 12.6758 8.80859 12.4336 8.91797C12.1914 9.02474 11.9167 9.07812 11.6094 9.07812C11.2995 9.07812 11.0221 9.02474 10.7773 8.91797C10.5352 8.80859 10.3294 8.65755 10.1602 8.46484C9.99089 8.26953 9.86198 8.04167 9.77344 7.78125C9.6849 7.52083 9.64062 7.23828 9.64062 6.93359ZM10.582 6.84375V6.93359C10.582 7.1237 10.6016 7.30339 10.6406 7.47266C10.6797 7.64193 10.7409 7.79036 10.8242 7.91797C10.9076 8.04557 11.0143 8.14583 11.1445 8.21875C11.2747 8.29167 11.4297 8.32812 11.6094 8.32812C11.7839 8.32812 11.9349 8.29167 12.0625 8.21875C12.1927 8.14583 12.2995 8.04557 12.3828 7.91797C12.4661 7.79036 12.5273 7.64193 12.5664 7.47266C12.6081 7.30339 12.6289 7.1237 12.6289 6.93359V6.84375C12.6289 6.65625 12.6081 6.47917 12.5664 6.3125C12.5273 6.14323 12.4648 5.99349 12.3789 5.86328C12.2956 5.73307 12.1888 5.63151 12.0586 5.55859C11.931 5.48307 11.7786 5.44531 11.6016 5.44531C11.4245 5.44531 11.2708 5.48307 11.1406 5.55859C11.013 5.63151 10.9076 5.73307 10.8242 5.86328C10.7409 5.99349 10.6797 6.14323 10.6406 6.3125C10.6016 6.47917 10.582 6.65625 10.582 6.84375ZM16.0859 8.32812C16.2396 8.32812 16.3776 8.29818 16.5 8.23828C16.625 8.17578 16.7253 8.08984 16.8008 7.98047C16.8789 7.87109 16.9219 7.74479 16.9297 7.60156H17.8164C17.8112 7.875 17.7305 8.1237 17.5742 8.34766C17.418 8.57161 17.2109 8.75 16.9531 8.88281C16.6953 9.01302 16.4102 9.07812 16.0977 9.07812C15.7747 9.07812 15.4935 9.02344 15.2539 8.91406C15.0143 8.80208 14.8151 8.64844 14.6562 8.45312C14.4974 8.25781 14.3776 8.03255 14.2969 7.77734C14.2188 7.52214 14.1797 7.2487 14.1797 6.95703V6.82031C14.1797 6.52865 14.2188 6.25521 14.2969 6C14.3776 5.74219 14.4974 5.51562 14.6562 5.32031C14.8151 5.125 15.0143 4.97266 15.2539 4.86328C15.4935 4.7513 15.7734 4.69531 16.0938 4.69531C16.4323 4.69531 16.7292 4.76302 16.9844 4.89844C17.2396 5.03125 17.4401 5.21745 17.5859 5.45703C17.7344 5.69401 17.8112 5.97005 17.8164 6.28516H16.9297C16.9219 6.12891 16.8828 5.98828 16.8125 5.86328C16.7448 5.73568 16.6484 5.63411 16.5234 5.55859C16.401 5.48307 16.2539 5.44531 16.082 5.44531C15.8919 5.44531 15.7344 5.48438 15.6094 5.5625C15.4844 5.63802 15.3867 5.74219 15.3164 5.875C15.2461 6.00521 15.1953 6.15234 15.1641 6.31641C15.1354 6.47786 15.1211 6.64583 15.1211 6.82031V6.95703C15.1211 7.13151 15.1354 7.30078 15.1641 7.46484C15.1927 7.62891 15.2422 7.77604 15.3125 7.90625C15.3854 8.03385 15.4844 8.13672 15.6094 8.21484C15.7344 8.29036 15.8932 8.32812 16.0859 8.32812ZM21.082 8.00391V4.77344H22.0273V9H21.1367L21.082 8.00391ZM21.2148 7.125L21.5312 7.11719C21.5312 7.40104 21.5 7.66276 21.4375 7.90234C21.375 8.13932 21.2786 8.34635 21.1484 8.52344C21.0182 8.69792 20.8516 8.83464 20.6484 8.93359C20.4453 9.02995 20.2018 9.07812 19.918 9.07812C19.7122 9.07812 19.5234 9.04818 19.3516 8.98828C19.1797 8.92839 19.0312 8.83594 18.9062 8.71094C18.7839 8.58594 18.6888 8.42318 18.6211 8.22266C18.5534 8.02214 18.5195 7.78255 18.5195 7.50391V4.77344H19.4609V7.51172C19.4609 7.66536 19.4792 7.79427 19.5156 7.89844C19.5521 8 19.6016 8.08203 19.6641 8.14453C19.7266 8.20703 19.7995 8.2513 19.8828 8.27734C19.9661 8.30339 20.0547 8.31641 20.1484 8.31641C20.4167 8.31641 20.6276 8.26432 20.7812 8.16016C20.9375 8.05339 21.0482 7.91016 21.1133 7.73047C21.181 7.55078 21.2148 7.34896 21.2148 7.125ZM23.9336 5.63281V9H22.9922V4.77344H23.8789L23.9336 5.63281ZM23.7812 6.73047L23.4609 6.72656C23.4609 6.4349 23.4974 6.16536 23.5703 5.91797C23.6432 5.67057 23.75 5.45573 23.8906 5.27344C24.0312 5.08854 24.2057 4.94661 24.4141 4.84766C24.625 4.74609 24.8685 4.69531 25.1445 4.69531C25.3372 4.69531 25.513 4.72396 25.6719 4.78125C25.8333 4.83594 25.9727 4.92318 26.0898 5.04297C26.2096 5.16276 26.3008 5.31641 26.3633 5.50391C26.4284 5.69141 26.4609 5.91797 26.4609 6.18359V9H25.5195V6.26562C25.5195 6.0599 25.4883 5.89844 25.4258 5.78125C25.3659 5.66406 25.2786 5.58073 25.1641 5.53125C25.0521 5.47917 24.918 5.45312 24.7617 5.45312C24.5846 5.45312 24.4336 5.48698 24.3086 5.55469C24.1862 5.6224 24.0859 5.71484 24.0078 5.83203C23.9297 5.94922 23.8724 6.08464 23.8359 6.23828C23.7995 6.39193 23.7812 6.55599 23.7812 6.73047ZM26.4023 6.48047L25.9609 6.57812C25.9609 6.32292 25.9961 6.08203 26.0664 5.85547C26.1393 5.6263 26.2448 5.42578 26.3828 5.25391C26.5234 5.07943 26.6966 4.94271 26.9023 4.84375C27.1081 4.74479 27.3438 4.69531 27.6094 4.69531C27.8255 4.69531 28.0182 4.72526 28.1875 4.78516C28.3594 4.84245 28.5052 4.93359 28.625 5.05859C28.7448 5.18359 28.8359 5.34635 28.8984 5.54688C28.9609 5.74479 28.9922 5.98438 28.9922 6.26562V9H28.0469V6.26172C28.0469 6.04818 28.0156 5.88281 27.9531 5.76562C27.8932 5.64844 27.8073 5.56771 27.6953 5.52344C27.5833 5.47656 27.4492 5.45312 27.293 5.45312C27.1471 5.45312 27.0182 5.48047 26.9062 5.53516C26.7969 5.58724 26.7044 5.66146 26.6289 5.75781C26.5534 5.85156 26.4961 5.95964 26.457 6.08203C26.4206 6.20443 26.4023 6.33724 26.4023 6.48047ZM31.8242 9.07812C31.5117 9.07812 31.2292 9.02734 30.9766 8.92578C30.7266 8.82161 30.513 8.67708 30.3359 8.49219C30.1615 8.30729 30.0273 8.08984 29.9336 7.83984C29.8398 7.58984 29.793 7.32031 29.793 7.03125V6.875C29.793 6.54427 29.8411 6.24479 29.9375 5.97656C30.0339 5.70833 30.168 5.47917 30.3398 5.28906C30.5117 5.09635 30.7148 4.94922 30.9492 4.84766C31.1836 4.74609 31.4375 4.69531 31.7109 4.69531C32.013 4.69531 32.2773 4.74609 32.5039 4.84766C32.7305 4.94922 32.918 5.09245 33.0664 5.27734C33.2174 5.45964 33.3294 5.67708 33.4023 5.92969C33.4779 6.18229 33.5156 6.46094 33.5156 6.76562V7.16797H30.25V6.49219H32.5859V6.41797C32.5807 6.2487 32.5469 6.08984 32.4844 5.94141C32.4245 5.79297 32.332 5.67318 32.207 5.58203C32.082 5.49089 31.9154 5.44531 31.707 5.44531C31.5508 5.44531 31.4115 5.47917 31.2891 5.54688C31.1693 5.61198 31.069 5.70703 30.9883 5.83203C30.9076 5.95703 30.8451 6.10807 30.8008 6.28516C30.7591 6.45964 30.7383 6.65625 30.7383 6.875V7.03125C30.7383 7.21615 30.763 7.38802 30.8125 7.54688C30.8646 7.70312 30.9401 7.83984 31.0391 7.95703C31.138 8.07422 31.2578 8.16667 31.3984 8.23438C31.5391 8.29948 31.6992 8.33203 31.8789 8.33203C32.1055 8.33203 32.3073 8.28646 32.4844 8.19531C32.6615 8.10417 32.8151 7.97526 32.9453 7.80859L33.4414 8.28906C33.3503 8.42188 33.2318 8.54948 33.0859 8.67188C32.9401 8.79167 32.7617 8.88932 32.5508 8.96484C32.3424 9.04036 32.1003 9.07812 31.8242 9.07812ZM35.1836 5.67578V9H34.2422V4.77344H35.1289L35.1836 5.67578ZM35.0156 6.73047L34.7109 6.72656C34.7135 6.42708 34.7552 6.15234 34.8359 5.90234C34.9193 5.65234 35.0339 5.4375 35.1797 5.25781C35.3281 5.07812 35.5052 4.9401 35.7109 4.84375C35.9167 4.74479 36.1458 4.69531 36.3984 4.69531C36.6016 4.69531 36.7852 4.72396 36.9492 4.78125C37.1159 4.83594 37.2578 4.92578 37.375 5.05078C37.4948 5.17578 37.5859 5.33854 37.6484 5.53906C37.7109 5.73698 37.7422 5.98047 37.7422 6.26953V9H36.7969V6.26562C36.7969 6.0625 36.7669 5.90234 36.707 5.78516C36.6497 5.66536 36.5651 5.58073 36.4531 5.53125C36.3438 5.47917 36.207 5.45312 36.043 5.45312C35.8815 5.45312 35.737 5.48698 35.6094 5.55469C35.4818 5.6224 35.3737 5.71484 35.2852 5.83203C35.1992 5.94922 35.1328 6.08464 35.0859 6.23828C35.0391 6.39193 35.0156 6.55599 35.0156 6.73047ZM40.6406 4.77344V5.46094H38.2578V4.77344H40.6406ZM38.9453 3.73828H39.8867V7.83203C39.8867 7.96224 39.9049 8.0625 39.9414 8.13281C39.9805 8.20052 40.0339 8.24609 40.1016 8.26953C40.1693 8.29297 40.2487 8.30469 40.3398 8.30469C40.4049 8.30469 40.4674 8.30078 40.5273 8.29297C40.5872 8.28516 40.6354 8.27734 40.6719 8.26953L40.6758 8.98828C40.5977 9.01172 40.5065 9.03255 40.4023 9.05078C40.3008 9.06901 40.1836 9.07812 40.0508 9.07812C39.8346 9.07812 39.6432 9.04036 39.4766 8.96484C39.3099 8.88672 39.1797 8.76042 39.0859 8.58594C38.9922 8.41146 38.9453 8.17969 38.9453 7.89062V3.73828ZM43.75 8.15234V6.13672C43.75 5.98568 43.7227 5.85547 43.668 5.74609C43.6133 5.63672 43.5299 5.55208 43.418 5.49219C43.3086 5.43229 43.1706 5.40234 43.0039 5.40234C42.8503 5.40234 42.7174 5.42839 42.6055 5.48047C42.4935 5.53255 42.4062 5.60286 42.3438 5.69141C42.2812 5.77995 42.25 5.88021 42.25 5.99219H41.3125C41.3125 5.82552 41.3529 5.66406 41.4336 5.50781C41.5143 5.35156 41.6315 5.21224 41.7852 5.08984C41.9388 4.96745 42.1224 4.87109 42.3359 4.80078C42.5495 4.73047 42.7891 4.69531 43.0547 4.69531C43.3724 4.69531 43.6536 4.7487 43.8984 4.85547C44.1458 4.96224 44.3398 5.1237 44.4805 5.33984C44.6237 5.55339 44.6953 5.82161 44.6953 6.14453V8.02344C44.6953 8.21615 44.7083 8.38932 44.7344 8.54297C44.763 8.69401 44.8034 8.82552 44.8555 8.9375V9H43.8906C43.8464 8.89844 43.8112 8.76953 43.7852 8.61328C43.7617 8.45443 43.75 8.30078 43.75 8.15234ZM43.8867 6.42969L43.8945 7.01172H43.2188C43.0443 7.01172 42.8906 7.02865 42.7578 7.0625C42.625 7.09375 42.5143 7.14062 42.4258 7.20312C42.3372 7.26562 42.2708 7.34115 42.2266 7.42969C42.1823 7.51823 42.1602 7.61849 42.1602 7.73047C42.1602 7.84245 42.1862 7.94531 42.2383 8.03906C42.2904 8.13021 42.3659 8.20182 42.4648 8.25391C42.5664 8.30599 42.6888 8.33203 42.832 8.33203C43.0247 8.33203 43.1927 8.29297 43.3359 8.21484C43.4818 8.13411 43.5964 8.03646 43.6797 7.92188C43.763 7.80469 43.8073 7.69401 43.8125 7.58984L44.1172 8.00781C44.0859 8.11458 44.0326 8.22917 43.957 8.35156C43.8815 8.47396 43.7826 8.59115 43.6602 8.70312C43.5404 8.8125 43.3958 8.90234 43.2266 8.97266C43.0599 9.04297 42.8672 9.07812 42.6484 9.07812C42.3724 9.07812 42.1263 9.02344 41.9102 8.91406C41.694 8.80208 41.5247 8.65234 41.4023 8.46484C41.2799 8.27474 41.2188 8.0599 41.2188 7.82031C41.2188 7.59635 41.2604 7.39844 41.3438 7.22656C41.4297 7.05208 41.5547 6.90625 41.7188 6.78906C41.8854 6.67188 42.0885 6.58333 42.3281 6.52344C42.5677 6.46094 42.8411 6.42969 43.1484 6.42969H43.8867ZM47.6172 4.77344V5.46094H45.2344V4.77344H47.6172ZM45.9219 3.73828H46.8633V7.83203C46.8633 7.96224 46.8815 8.0625 46.918 8.13281C46.957 8.20052 47.0104 8.24609 47.0781 8.26953C47.1458 8.29297 47.2253 8.30469 47.3164 8.30469C47.3815 8.30469 47.444 8.30078 47.5039 8.29297C47.5638 8.28516 47.612 8.27734 47.6484 8.26953L47.6523 8.98828C47.5742 9.01172 47.4831 9.03255 47.3789 9.05078C47.2773 9.06901 47.1602 9.07812 47.0273 9.07812C46.8112 9.07812 46.6198 9.04036 46.4531 8.96484C46.2865 8.88672 46.1562 8.76042 46.0625 8.58594C45.9688 8.41146 45.9219 8.17969 45.9219 7.89062V3.73828ZM49.3516 4.77344V9H48.4062V4.77344H49.3516ZM48.3438 3.66406C48.3438 3.52083 48.3906 3.40234 48.4844 3.30859C48.5807 3.21224 48.7135 3.16406 48.8828 3.16406C49.0495 3.16406 49.181 3.21224 49.2773 3.30859C49.3737 3.40234 49.4219 3.52083 49.4219 3.66406C49.4219 3.80469 49.3737 3.92188 49.2773 4.01562C49.181 4.10938 49.0495 4.15625 48.8828 4.15625C48.7135 4.15625 48.5807 4.10938 48.4844 4.01562C48.3906 3.92188 48.3438 3.80469 48.3438 3.66406ZM50.2031 6.93359V6.84375C50.2031 6.53906 50.2474 6.25651 50.3359 5.99609C50.4245 5.73307 50.5521 5.50521 50.7188 5.3125C50.888 5.11719 51.0938 4.96615 51.3359 4.85938C51.5807 4.75 51.8568 4.69531 52.1641 4.69531C52.474 4.69531 52.75 4.75 52.9922 4.85938C53.237 4.96615 53.444 5.11719 53.6133 5.3125C53.7826 5.50521 53.9115 5.73307 54 5.99609C54.0885 6.25651 54.1328 6.53906 54.1328 6.84375V6.93359C54.1328 7.23828 54.0885 7.52083 54 7.78125C53.9115 8.04167 53.7826 8.26953 53.6133 8.46484C53.444 8.65755 53.2383 8.80859 52.9961 8.91797C52.7539 9.02474 52.4792 9.07812 52.1719 9.07812C51.862 9.07812 51.5846 9.02474 51.3398 8.91797C51.0977 8.80859 50.8919 8.65755 50.7227 8.46484C50.5534 8.26953 50.4245 8.04167 50.3359 7.78125C50.2474 7.52083 50.2031 7.23828 50.2031 6.93359ZM51.1445 6.84375V6.93359C51.1445 7.1237 51.1641 7.30339 51.2031 7.47266C51.2422 7.64193 51.3034 7.79036 51.3867 7.91797C51.4701 8.04557 51.5768 8.14583 51.707 8.21875C51.8372 8.29167 51.9922 8.32812 52.1719 8.32812C52.3464 8.32812 52.4974 8.29167 52.625 8.21875C52.7552 8.14583 52.862 8.04557 52.9453 7.91797C53.0286 7.79036 53.0898 7.64193 53.1289 7.47266C53.1706 7.30339 53.1914 7.1237 53.1914 6.93359V6.84375C53.1914 6.65625 53.1706 6.47917 53.1289 6.3125C53.0898 6.14323 53.0273 5.99349 52.9414 5.86328C52.8581 5.73307 52.7513 5.63151 52.6211 5.55859C52.4935 5.48307 52.3411 5.44531 52.1641 5.44531C51.987 5.44531 51.8333 5.48307 51.7031 5.55859C51.5755 5.63151 51.4701 5.73307 51.3867 5.86328C51.3034 5.99349 51.2422 6.14323 51.2031 6.3125C51.1641 6.47917 51.1445 6.65625 51.1445 6.84375ZM55.8555 5.67578V9H54.9141V4.77344H55.8008L55.8555 5.67578ZM55.6875 6.73047L55.3828 6.72656C55.3854 6.42708 55.4271 6.15234 55.5078 5.90234C55.5911 5.65234 55.7057 5.4375 55.8516 5.25781C56 5.07812 56.1771 4.9401 56.3828 4.84375C56.5885 4.74479 56.8177 4.69531 57.0703 4.69531C57.2734 4.69531 57.457 4.72396 57.6211 4.78125C57.7878 4.83594 57.9297 4.92578 58.0469 5.05078C58.1667 5.17578 58.2578 5.33854 58.3203 5.53906C58.3828 5.73698 58.4141 5.98047 58.4141 6.26953V9H57.4688V6.26562C57.4688 6.0625 57.4388 5.90234 57.3789 5.78516C57.3216 5.66536 57.237 5.58073 57.125 5.53125C57.0156 5.47917 56.8789 5.45312 56.7148 5.45312C56.5534 5.45312 56.4089 5.48698 56.2812 5.55469C56.1536 5.6224 56.0456 5.71484 55.957 5.83203C55.8711 5.94922 55.8047 6.08464 55.7578 6.23828C55.7109 6.39193 55.6875 6.55599 55.6875 6.73047Z" fill="white"/>
</svg>
