<svg width="61" height="12" viewBox="0 0 61 12" fill="none" xmlns="http://www.w3.org/2000/svg">
<rect width="61" height="12" rx="2" fill="#5258E4"/>
<path d="M6.96875 4.07031L5.26953 9H4.24219L6.38281 3.3125H7.03906L6.96875 4.07031ZM8.39062 9L6.6875 4.07031L6.61328 3.3125H7.27344L9.42188 9H8.39062ZM8.30859 6.89062V7.66797H5.21484V6.89062H8.30859ZM11.2578 7.72266L12.3906 3.3125H12.9844L12.918 4.44922L11.707 9H11.0898L11.2578 7.72266ZM10.4102 3.3125L11.3281 7.6875L11.4102 9H10.7539L9.4375 3.3125H10.4102ZM14.2695 7.67578L15.1758 3.3125H16.1523L14.8359 9H14.1797L14.2695 7.67578ZM13.2148 3.3125L14.3359 7.73438L14.5 9H13.8828L12.6914 4.44922L12.6289 3.3125H13.2148ZM19.8711 7.53516C19.8711 7.41797 19.8529 7.3138 19.8164 7.22266C19.7826 7.13151 19.7214 7.04818 19.6328 6.97266C19.5443 6.89714 19.4193 6.82422 19.2578 6.75391C19.099 6.68099 18.8958 6.60677 18.6484 6.53125C18.3776 6.44792 18.1276 6.35547 17.8984 6.25391C17.6719 6.14974 17.474 6.02995 17.3047 5.89453C17.1354 5.75651 17.0039 5.59896 16.9102 5.42188C16.8164 5.24219 16.7695 5.03516 16.7695 4.80078C16.7695 4.56901 16.8177 4.35807 16.9141 4.16797C17.013 3.97786 17.1523 3.8138 17.332 3.67578C17.5143 3.53516 17.7292 3.42708 17.9766 3.35156C18.224 3.27344 18.4974 3.23438 18.7969 3.23438C19.2188 3.23438 19.582 3.3125 19.8867 3.46875C20.194 3.625 20.4297 3.83464 20.5938 4.09766C20.7604 4.36068 20.8438 4.65104 20.8438 4.96875H19.8711C19.8711 4.78125 19.8307 4.61589 19.75 4.47266C19.6719 4.32682 19.5521 4.21224 19.3906 4.12891C19.2318 4.04557 19.0299 4.00391 18.7852 4.00391C18.5534 4.00391 18.3607 4.03906 18.207 4.10938C18.0534 4.17969 17.9388 4.27474 17.8633 4.39453C17.7878 4.51432 17.75 4.64974 17.75 4.80078C17.75 4.90755 17.7747 5.00521 17.8242 5.09375C17.8737 5.17969 17.9492 5.26042 18.0508 5.33594C18.1523 5.40885 18.2799 5.47786 18.4336 5.54297C18.5872 5.60807 18.7682 5.67057 18.9766 5.73047C19.2917 5.82422 19.5664 5.92839 19.8008 6.04297C20.0352 6.15495 20.2305 6.28255 20.3867 6.42578C20.543 6.56901 20.6602 6.73177 20.7383 6.91406C20.8164 7.09375 20.8555 7.29818 20.8555 7.52734C20.8555 7.76693 20.8073 7.98307 20.7109 8.17578C20.6146 8.36589 20.4766 8.52865 20.2969 8.66406C20.1198 8.79688 19.9062 8.89974 19.6562 8.97266C19.4089 9.04297 19.1328 9.07812 18.8281 9.07812C18.5547 9.07812 18.2852 9.04167 18.0195 8.96875C17.7565 8.89583 17.5169 8.78516 17.3008 8.63672C17.0846 8.48568 16.9128 8.29818 16.7852 8.07422C16.6576 7.84766 16.5938 7.58333 16.5938 7.28125H17.5742C17.5742 7.46615 17.6055 7.6237 17.668 7.75391C17.7331 7.88411 17.8229 7.99089 17.9375 8.07422C18.0521 8.15495 18.1849 8.21484 18.3359 8.25391C18.4896 8.29297 18.6536 8.3125 18.8281 8.3125C19.0573 8.3125 19.2487 8.27995 19.4023 8.21484C19.5586 8.14974 19.6758 8.05859 19.7539 7.94141C19.832 7.82422 19.8711 7.6888 19.8711 7.53516ZM28.082 6.09375V8.26562C28.0013 8.3724 27.875 8.48958 27.7031 8.61719C27.5339 8.74219 27.3086 8.85026 27.0273 8.94141C26.7461 9.03255 26.3958 9.07812 25.9766 9.07812C25.6198 9.07812 25.293 9.01823 24.9961 8.89844C24.6992 8.77604 24.4427 8.59766 24.2266 8.36328C24.013 8.12891 23.8477 7.84375 23.7305 7.50781C23.6133 7.16927 23.5547 6.78385 23.5547 6.35156V5.95703C23.5547 5.52734 23.6081 5.14453 23.7148 4.80859C23.8242 4.47005 23.9805 4.18359 24.1836 3.94922C24.3867 3.71484 24.6315 3.53776 24.918 3.41797C25.207 3.29557 25.5339 3.23438 25.8984 3.23438C26.3646 3.23438 26.75 3.3125 27.0547 3.46875C27.362 3.6224 27.599 3.83594 27.7656 4.10938C27.9323 4.38281 28.0378 4.69531 28.082 5.04688H27.1211C27.0898 4.84896 27.0286 4.67188 26.9375 4.51562C26.849 4.35938 26.7214 4.23698 26.5547 4.14844C26.3906 4.05729 26.1771 4.01172 25.9141 4.01172C25.6875 4.01172 25.4883 4.05469 25.3164 4.14062C25.1445 4.22656 25.0013 4.35286 24.8867 4.51953C24.7747 4.6862 24.6901 4.88932 24.6328 5.12891C24.5755 5.36849 24.5469 5.64193 24.5469 5.94922V6.35156C24.5469 6.66406 24.5794 6.94141 24.6445 7.18359C24.7122 7.42578 24.8086 7.63021 24.9336 7.79688C25.0612 7.96354 25.2161 8.08984 25.3984 8.17578C25.5807 8.25911 25.7865 8.30078 26.0156 8.30078C26.2396 8.30078 26.4232 8.28255 26.5664 8.24609C26.7096 8.20703 26.8229 8.16146 26.9062 8.10938C26.9922 8.05469 27.0586 8.0026 27.1055 7.95312V6.82422H25.9219V6.09375H28.082ZM31.6172 8.00391V4.77344H32.5625V9H31.6719L31.6172 8.00391ZM31.75 7.125L32.0664 7.11719C32.0664 7.40104 32.0352 7.66276 31.9727 7.90234C31.9102 8.13932 31.8138 8.34635 31.6836 8.52344C31.5534 8.69792 31.3867 8.83464 31.1836 8.93359C30.9805 9.02995 30.737 9.07812 30.4531 9.07812C30.2474 9.07812 30.0586 9.04818 29.8867 8.98828C29.7148 8.92839 29.5664 8.83594 29.4414 8.71094C29.319 8.58594 29.224 8.42318 29.1562 8.22266C29.0885 8.02214 29.0547 7.78255 29.0547 7.50391V4.77344H29.9961V7.51172C29.9961 7.66536 30.0143 7.79427 30.0508 7.89844C30.0872 8 30.1367 8.08203 30.1992 8.14453C30.2617 8.20703 30.3346 8.2513 30.418 8.27734C30.5013 8.30339 30.5898 8.31641 30.6836 8.31641C30.9518 8.31641 31.1628 8.26432 31.3164 8.16016C31.4727 8.05339 31.5833 7.91016 31.6484 7.73047C31.7161 7.55078 31.75 7.34896 31.75 7.125ZM34.5352 4.77344V9H33.5898V4.77344H34.5352ZM33.5273 3.66406C33.5273 3.52083 33.5742 3.40234 33.668 3.30859C33.7643 3.21224 33.8971 3.16406 34.0664 3.16406C34.2331 3.16406 34.3646 3.21224 34.4609 3.30859C34.5573 3.40234 34.6055 3.52083 34.6055 3.66406C34.6055 3.80469 34.5573 3.92188 34.4609 4.01562C34.3646 4.10938 34.2331 4.15625 34.0664 4.15625C33.8971 4.15625 33.7643 4.10938 33.668 4.01562C33.5742 3.92188 33.5273 3.80469 33.5273 3.66406ZM38.1445 8.125V3H39.0898V9H38.2344L38.1445 8.125ZM35.3945 6.93359V6.85156C35.3945 6.53125 35.4323 6.23958 35.5078 5.97656C35.5833 5.71094 35.6927 5.48307 35.8359 5.29297C35.9792 5.10026 36.1536 4.95312 36.3594 4.85156C36.5651 4.7474 36.7969 4.69531 37.0547 4.69531C37.3099 4.69531 37.5339 4.74479 37.7266 4.84375C37.9193 4.94271 38.0833 5.08464 38.2188 5.26953C38.3542 5.45182 38.4622 5.67057 38.543 5.92578C38.6237 6.17839 38.681 6.45964 38.7148 6.76953V7.03125C38.681 7.33333 38.6237 7.60938 38.543 7.85938C38.4622 8.10938 38.3542 8.32552 38.2188 8.50781C38.0833 8.6901 37.918 8.83073 37.7227 8.92969C37.5299 9.02865 37.3047 9.07812 37.0469 9.07812C36.7917 9.07812 36.5612 9.02474 36.3555 8.91797C36.1523 8.8112 35.9792 8.66146 35.8359 8.46875C35.6927 8.27604 35.5833 8.04948 35.5078 7.78906C35.4323 7.52604 35.3945 7.24089 35.3945 6.93359ZM36.3359 6.85156V6.93359C36.3359 7.1263 36.3529 7.30599 36.3867 7.47266C36.4232 7.63932 36.4792 7.78646 36.5547 7.91406C36.6302 8.03906 36.7279 8.13802 36.8477 8.21094C36.9701 8.28125 37.1159 8.31641 37.2852 8.31641C37.4987 8.31641 37.6745 8.26953 37.8125 8.17578C37.9505 8.08203 38.0586 7.95573 38.1367 7.79688C38.2174 7.63542 38.2721 7.45573 38.3008 7.25781V6.55078C38.2852 6.39714 38.2526 6.25391 38.2031 6.12109C38.1562 5.98828 38.0924 5.8724 38.0117 5.77344C37.931 5.67188 37.8307 5.59375 37.7109 5.53906C37.5938 5.48177 37.4544 5.45312 37.293 5.45312C37.1211 5.45312 36.9753 5.48958 36.8555 5.5625C36.7357 5.63542 36.6367 5.73568 36.5586 5.86328C36.4831 5.99089 36.4271 6.13932 36.3906 6.30859C36.3542 6.47786 36.3359 6.65885 36.3359 6.85156ZM42.457 8.15234V6.13672C42.457 5.98568 42.4297 5.85547 42.375 5.74609C42.3203 5.63672 42.237 5.55208 42.125 5.49219C42.0156 5.43229 41.8776 5.40234 41.7109 5.40234C41.5573 5.40234 41.4245 5.42839 41.3125 5.48047C41.2005 5.53255 41.1133 5.60286 41.0508 5.69141C40.9883 5.77995 40.957 5.88021 40.957 5.99219H40.0195C40.0195 5.82552 40.0599 5.66406 40.1406 5.50781C40.2214 5.35156 40.3385 5.21224 40.4922 5.08984C40.6458 4.96745 40.8294 4.87109 41.043 4.80078C41.2565 4.73047 41.4961 4.69531 41.7617 4.69531C42.0794 4.69531 42.3607 4.7487 42.6055 4.85547C42.8529 4.96224 43.0469 5.1237 43.1875 5.33984C43.3307 5.55339 43.4023 5.82161 43.4023 6.14453V8.02344C43.4023 8.21615 43.4154 8.38932 43.4414 8.54297C43.4701 8.69401 43.5104 8.82552 43.5625 8.9375V9H42.5977C42.5534 8.89844 42.5182 8.76953 42.4922 8.61328C42.4688 8.45443 42.457 8.30078 42.457 8.15234ZM42.5938 6.42969L42.6016 7.01172H41.9258C41.7513 7.01172 41.5977 7.02865 41.4648 7.0625C41.332 7.09375 41.2214 7.14062 41.1328 7.20312C41.0443 7.26562 40.9779 7.34115 40.9336 7.42969C40.8893 7.51823 40.8672 7.61849 40.8672 7.73047C40.8672 7.84245 40.8932 7.94531 40.9453 8.03906C40.9974 8.13021 41.0729 8.20182 41.1719 8.25391C41.2734 8.30599 41.3958 8.33203 41.5391 8.33203C41.7318 8.33203 41.8997 8.29297 42.043 8.21484C42.1888 8.13411 42.3034 8.03646 42.3867 7.92188C42.4701 7.80469 42.5143 7.69401 42.5195 7.58984L42.8242 8.00781C42.793 8.11458 42.7396 8.22917 42.6641 8.35156C42.5885 8.47396 42.4896 8.59115 42.3672 8.70312C42.2474 8.8125 42.1029 8.90234 41.9336 8.97266C41.7669 9.04297 41.5742 9.07812 41.3555 9.07812C41.0794 9.07812 40.8333 9.02344 40.6172 8.91406C40.401 8.80208 40.2318 8.65234 40.1094 8.46484C39.987 8.27474 39.9258 8.0599 39.9258 7.82031C39.9258 7.59635 39.9674 7.39844 40.0508 7.22656C40.1367 7.05208 40.2617 6.90625 40.4258 6.78906C40.5924 6.67188 40.7956 6.58333 41.0352 6.52344C41.2747 6.46094 41.5482 6.42969 41.8555 6.42969H42.5938ZM45.3203 5.67578V9H44.3789V4.77344H45.2656L45.3203 5.67578ZM45.1523 6.73047L44.8477 6.72656C44.8503 6.42708 44.8919 6.15234 44.9727 5.90234C45.056 5.65234 45.1706 5.4375 45.3164 5.25781C45.4648 5.07812 45.6419 4.9401 45.8477 4.84375C46.0534 4.74479 46.2826 4.69531 46.5352 4.69531C46.7383 4.69531 46.9219 4.72396 47.0859 4.78125C47.2526 4.83594 47.3945 4.92578 47.5117 5.05078C47.6315 5.17578 47.7227 5.33854 47.7852 5.53906C47.8477 5.73698 47.8789 5.98047 47.8789 6.26953V9H46.9336V6.26562C46.9336 6.0625 46.9036 5.90234 46.8438 5.78516C46.7865 5.66536 46.7018 5.58073 46.5898 5.53125C46.4805 5.47917 46.3438 5.45312 46.1797 5.45312C46.0182 5.45312 45.8737 5.48698 45.7461 5.55469C45.6185 5.6224 45.5104 5.71484 45.4219 5.83203C45.3359 5.94922 45.2695 6.08464 45.2227 6.23828C45.1758 6.39193 45.1523 6.55599 45.1523 6.73047ZM50.5664 8.32812C50.7201 8.32812 50.8581 8.29818 50.9805 8.23828C51.1055 8.17578 51.2057 8.08984 51.2812 7.98047C51.3594 7.87109 51.4023 7.74479 51.4102 7.60156H52.2969C52.2917 7.875 52.2109 8.1237 52.0547 8.34766C51.8984 8.57161 51.6914 8.75 51.4336 8.88281C51.1758 9.01302 50.8906 9.07812 50.5781 9.07812C50.2552 9.07812 49.974 9.02344 49.7344 8.91406C49.4948 8.80208 49.2956 8.64844 49.1367 8.45312C48.9779 8.25781 48.8581 8.03255 48.7773 7.77734C48.6992 7.52214 48.6602 7.2487 48.6602 6.95703V6.82031C48.6602 6.52865 48.6992 6.25521 48.7773 6C48.8581 5.74219 48.9779 5.51562 49.1367 5.32031C49.2956 5.125 49.4948 4.97266 49.7344 4.86328C49.974 4.7513 50.2539 4.69531 50.5742 4.69531C50.9128 4.69531 51.2096 4.76302 51.4648 4.89844C51.7201 5.03125 51.9206 5.21745 52.0664 5.45703C52.2148 5.69401 52.2917 5.97005 52.2969 6.28516H51.4102C51.4023 6.12891 51.3633 5.98828 51.293 5.86328C51.2253 5.73568 51.1289 5.63411 51.0039 5.55859C50.8815 5.48307 50.7344 5.44531 50.5625 5.44531C50.3724 5.44531 50.2148 5.48438 50.0898 5.5625C49.9648 5.63802 49.8672 5.74219 49.7969 5.875C49.7266 6.00521 49.6758 6.15234 49.6445 6.31641C49.6159 6.47786 49.6016 6.64583 49.6016 6.82031V6.95703C49.6016 7.13151 49.6159 7.30078 49.6445 7.46484C49.6732 7.62891 49.7227 7.77604 49.793 7.90625C49.8659 8.03385 49.9648 8.13672 50.0898 8.21484C50.2148 8.29036 50.3737 8.32812 50.5664 8.32812ZM54.8828 9.07812C54.5703 9.07812 54.2878 9.02734 54.0352 8.92578C53.7852 8.82161 53.5716 8.67708 53.3945 8.49219C53.2201 8.30729 53.0859 8.08984 52.9922 7.83984C52.8984 7.58984 52.8516 7.32031 52.8516 7.03125V6.875C52.8516 6.54427 52.8997 6.24479 52.9961 5.97656C53.0924 5.70833 53.2266 5.47917 53.3984 5.28906C53.5703 5.09635 53.7734 4.94922 54.0078 4.84766C54.2422 4.74609 54.4961 4.69531 54.7695 4.69531C55.0716 4.69531 55.3359 4.74609 55.5625 4.84766C55.7891 4.94922 55.9766 5.09245 56.125 5.27734C56.276 5.45964 56.388 5.67708 56.4609 5.92969C56.5365 6.18229 56.5742 6.46094 56.5742 6.76562V7.16797H53.3086V6.49219H55.6445V6.41797C55.6393 6.2487 55.6055 6.08984 55.543 5.94141C55.4831 5.79297 55.3906 5.67318 55.2656 5.58203C55.1406 5.49089 54.974 5.44531 54.7656 5.44531C54.6094 5.44531 54.4701 5.47917 54.3477 5.54688C54.2279 5.61198 54.1276 5.70703 54.0469 5.83203C53.9661 5.95703 53.9036 6.10807 53.8594 6.28516C53.8177 6.45964 53.7969 6.65625 53.7969 6.875V7.03125C53.7969 7.21615 53.8216 7.38802 53.8711 7.54688C53.9232 7.70312 53.9987 7.83984 54.0977 7.95703C54.1966 8.07422 54.3164 8.16667 54.457 8.23438C54.5977 8.29948 54.7578 8.33203 54.9375 8.33203C55.1641 8.33203 55.3659 8.28646 55.543 8.19531C55.7201 8.10417 55.8737 7.97526 56.0039 7.80859L56.5 8.28906C56.4089 8.42188 56.2904 8.54948 56.1445 8.67188C55.9987 8.79167 55.8203 8.88932 55.6094 8.96484C55.401 9.04036 55.1589 9.07812 54.8828 9.07812Z" fill="white"/>
</svg>
