<?xml version="1.0" encoding="utf-8"?>
<svg viewBox="44.092 53.337 124.822 124.869" xmlns="http://www.w3.org/2000/svg">
  <path d="M565 1245 c-43 -18 -76 -41 -116 -84 -37 -38 -68 -61 -89 -66 -46 -10 -116 -81 -129 -131 -10 -37 -15 -42 -46 -47 -56 -9 -120 -60 -149 -119 -67 -135 2 -297 142 -334 50 -12 62 -11 62 10 0 7 -22 18 -48 25 -50 12 -106 59 -132 111 -18 35 -17 129 3 166 23 45 80 91 129 105 24 6 48 13 54 14 6 2 14 22 18 45 9 54 56 103 116 121 25 7 49 19 54 27 25 42 84 94 132 118 157 77 356 -8 411 -175 l21 -64 52 -14 c28 -7 56 -11 61 -7 19 12 7 24 -38 37 -42 12 -47 18 -58 55 -55 183 -267 281 -450 207z" style="fill: rgb(255, 255, 255);" transform="matrix(0.1, 0, 0, -0.1, 43.074795, 180.319077)"/>
  <path d="M505 946 c-68 -22 -138 -62 -184 -105 -36 -35 -41 -44 -31 -56 11 -13 19 -9 60 29 156 146 379 152 548 16 65 -52 82 -60 82 -36 0 23 -88 94 -159 128 -59 29 -77 32 -171 35 -67 2 -119 -2 -145 -11z" style="fill: rgb(255, 255, 255);" transform="matrix(0.1, 0, 0, -0.1, 43.074795, 180.319077)"/>
  <path d="M1134 936 c-8 -22 3 -33 18 -18 9 9 9 15 0 24 -9 9 -13 7 -18 -6z" style="fill: rgb(255, 255, 255);" transform="matrix(0.1, 0, 0, -0.1, 43.074795, 180.319077)"/>
  <path d="M1176 891 c-4 -5 5 -31 19 -57 44 -83 31 -189 -32 -264 -29 -35 -114 -80 -151 -80 -17 0 -23 -5 -20 -17 3 -14 11 -17 38 -15 134 14 242 156 227 299 -8 77 -62 166 -81 134z" style="fill: rgb(255, 255, 255);" transform="matrix(0.1, 0, 0, -0.1, 43.074795, 180.319077)"/>
  <path d="M545 806 c-27 -7 -66 -21 -85 -30 -44 -23 -120 -84 -120 -97 0 -23 30 -18 61 12 19 17 59 43 89 58 47 22 68 26 145 26 79 0 97 -4 142 -28 29 -15 68 -41 88 -58 22 -20 41 -29 52 -25 14 6 12 11 -13 37 -45 47 -114 87 -179 104 -69 18 -111 18 -180 1z" style="fill: rgb(255, 255, 255);" transform="matrix(0.1, 0, 0, -0.1, 43.074795, 180.319077)"/>
  <path d="M567 679 c-53 -13 -107 -42 -141 -78 -26 -27 -27 -31 -12 -37 11 -4 27 2 44 19 51 47 92 62 172 62 79 0 129 -18 178 -65 22 -21 52 -21 52 0 0 19 -95 79 -151 94 -61 18 -85 18 -142 5z" style="fill: rgb(255, 255, 255);" transform="matrix(0.1, 0, 0, -0.1, 43.074795, 180.319077)"/>
  <path d="M620 535 l0 -65 -30 0 c-17 0 -47 7 -67 15 -110 46 -228 -18 -294 -159 -57 -122 -39 -244 41 -288 51 -27 90 -22 166 18 l67 35 136 -3 c132 -3 137 -4 180 -33 36 -24 54 -29 101 -30 49 0 63 4 85 25 85 78 70 246 -32 360 -62 69 -111 93 -177 87 -28 -2 -65 -10 -82 -17 -51 -22 -64 -10 -64 60 0 47 -3 60 -15 60 -12 0 -15 -14 -15 -65z m-119 -81 c17 -8 61 -18 99 -21 55 -5 82 -1 139 17 68 23 71 23 115 6 144 -55 228 -298 129 -375 -38 -30 -84 -26 -160 14 -66 35 -67 35 -194 35 -126 0 -128 0 -193 -35 -86 -46 -131 -47 -172 -4 -27 28 -29 36 -29 102 1 83 28 146 91 211 61 63 118 80 175 50z" style="fill: rgb(255, 255, 255);" transform="matrix(0.1, 0, 0, -0.1, 43.074795, 180.319077)"/>
  <path d="M810 375 c-17 -21 -2 -50 26 -50 14 0 19 7 19 30 0 34 -24 45 -45 20z" style="fill: rgb(255, 255, 255);" transform="matrix(0.1, 0, 0, -0.1, 43.074795, 180.319077)"/>
  <path d="M420 325 c0 -34 -1 -35 -41 -35 -33 0 -40 -3 -37 -17 2 -13 14 -19 41 -21 35 -3 37 -5 37 -38 0 -24 5 -34 15 -34 10 0 15 10 15 34 0 33 2 35 37 38 27 2 39 8 41 21 3 14 -4 17 -37 17 -40 0 -41 1 -41 35 0 24 -5 35 -15 35 -10 0 -15 -11 -15 -35z" style="fill: rgb(255, 255, 255);" transform="matrix(0.1, 0, 0, -0.1, 43.074795, 180.319077)"/>
  <path d="M714 296 c-10 -26 4 -48 28 -44 17 2 23 10 23 28 0 18 -6 26 -23 28 -13 2 -25 -3 -28 -12z" style="fill: rgb(255, 255, 255);" transform="matrix(0.1, 0, 0, -0.1, 43.074795, 180.319077)"/>
  <path d="M884 286 c-10 -26 4 -48 28 -44 17 2 23 10 23 28 0 18 -6 26 -23 28 -13 2 -25 -3 -28 -12z" style="fill: rgb(255, 255, 255);" transform="matrix(0.1, 0, 0, -0.1, 43.074795, 180.319077)"/>
  <path d="M794 206 c-10 -26 4 -48 28 -44 17 2 23 10 23 28 0 18 -6 26 -23 28 -13 2 -25 -3 -28 -12z" style="fill: rgb(255, 255, 255);" transform="matrix(0.1, 0, 0, -0.1, 43.074795, 180.319077)"/>
</svg>