<svg width="12" height="12" viewBox="0 0 12 12" fill="none" xmlns="http://www.w3.org/2000/svg">
<path fill-rule="evenodd" clip-rule="evenodd" d="M9.00012 6C9.00012 4.34315 7.65698 3 6.00012 3L6.00012 2C8.20926 2 10.0001 3.79086 10.0001 6C10.0001 8.20914 8.20926 10 6.00012 10C3.79098 10 2.00012 8.20914 2.00014 6.00423C1.99025 4.83484 2.499 3.7432 3.35452 3L2.00012 3L2.00012 2L5.00012 2L5.00012 5L4.00012 5L4.00012 3.76395C3.36816 4.31827 2.99277 5.12926 3.00012 6C3.00012 7.65685 4.34327 9 6.00012 9C7.65698 9 9.00012 7.65685 9.00012 6Z" fill="white"/>
</svg>
