<svg width="20" height="20" viewBox="0 0 20 20" fill="none" xmlns="http://www.w3.org/2000/svg">
<path fill-rule="evenodd" clip-rule="evenodd" d="M0 10C0 15.5228 4.47715 20 10 20C15.5228 20 20 15.5228 20 10C20 4.47715 15.5228 0 10 0C4.47715 0 0 4.47715 0 10ZM17.5 10C17.5 14.1421 14.1421 17.5 10 17.5C5.85786 17.5 2.5 14.1421 2.5 10C2.5 5.85786 5.85786 2.5 10 2.5C14.1421 2.5 17.5 5.85786 17.5 10Z" fill="#E5E5E5"/>
<path d="M8.125 12.5H10.625V15H8.125V12.5Z" fill="#E5E5E5"/>
<path d="M10.625 7.5H6.875V5H13.125V11.25H11.875H8.125V8.75H10.625V7.5Z" fill="#E5E5E5"/>
</svg>
