<svg width="10" height="10" viewBox="0 0 10 10" fill="none" xmlns="http://www.w3.org/2000/svg">
<path fill-rule="evenodd" clip-rule="evenodd" d="M5 10C2.23858 10 0 7.76142 0 5C0 2.23858 2.23858 0 5 0C7.76142 0 10 2.23858 10 5C10 7.76142 7.76142 10 5 10ZM5 8.75C7.07107 8.75 8.75 7.07107 8.75 5C8.75 2.92893 7.07107 1.25 5 1.25C2.92893 1.25 1.25 2.92893 1.25 5C1.25 7.07107 2.92893 8.75 5 8.75ZM2.24112 5L3.125 4.11612L4.375 5.36612L6.575 3.16612L7.45888 4.05L4.375 7.13388L2.24112 5Z" fill="#37A600"/>
</svg>
