<svg width="12" height="12" viewBox="0 0 12 12" fill="none" xmlns="http://www.w3.org/2000/svg">
<path fill-rule="evenodd" clip-rule="evenodd" d="M0 6C0 9.31371 2.68629 12 6 12C9.31371 12 12 9.31371 12 6C12 2.68629 9.31371 0 6 0C2.68629 0 0 2.68629 0 6ZM10.5 6C10.5 8.48528 8.48528 10.5 6 10.5C3.51472 10.5 1.5 8.48528 1.5 6C1.5 3.51472 3.51472 1.5 6 1.5C8.48528 1.5 10.5 3.51472 10.5 6ZM4.93934 6L3.34717 7.59217L4.40783 8.65283L6 7.06066L7.59217 8.65283L8.65283 7.59217L7.06066 6L8.65283 4.40783L7.59217 3.34717L6 4.93934L4.40783 3.34717L3.34717 4.40783L4.93934 6Z" fill="white"/>
</svg>
