<svg width="10" height="10" viewBox="0 0 10 10" fill="none" xmlns="http://www.w3.org/2000/svg">
<path fill-rule="evenodd" clip-rule="evenodd" d="M0 5C0 7.76142 2.23858 10 5 10C7.76142 10 10 7.76142 10 5C10 2.23858 7.76142 0 5 0C2.23858 0 0 2.23858 0 5ZM8.75 5C8.75 7.07107 7.07107 8.75 5 8.75C2.92893 8.75 1.25 7.07107 1.25 5C1.25 2.92893 2.92893 1.25 5 1.25C7.07107 1.25 8.75 2.92893 8.75 5ZM4.11612 5L2.78931 6.32681L3.67319 7.21069L5 5.88388L6.32681 7.21069L7.21069 6.32681L5.88388 5L7.21069 3.67319L6.32681 2.78931L5 4.11612L3.67319 2.78931L2.78931 3.67319L4.11612 5Z" fill="#D63F38"/>
</svg>
