<svg width="12" height="12" viewBox="0 0 12 12" fill="none" xmlns="http://www.w3.org/2000/svg">
<path fill-rule="evenodd" clip-rule="evenodd" d="M3.2916 1.94658C4.09329 1.41091 5.03582 1.125 6 1.125C7.29293 1.125 8.5329 1.63861 9.44714 2.55285C10.3614 3.46709 10.875 4.70707 10.875 6C10.875 6.96418 10.5891 7.90671 10.0534 8.7084C9.51774 9.51009 8.75637 10.1349 7.86558 10.5039C6.97479 10.8729 5.99459 10.9694 5.04894 10.7813C4.10328 10.5932 3.23464 10.1289 2.55286 9.44714C1.87108 8.76536 1.40678 7.89672 1.21868 6.95106C1.03057 6.00541 1.12711 5.02521 1.49609 4.13442C1.86507 3.24363 2.48991 2.48226 3.2916 1.94658ZM6 0C4.81331 0 3.65328 0.351894 2.66658 1.01118C1.67989 1.67047 0.910851 2.60754 0.456725 3.7039C0.00259973 4.80026 -0.11622 6.00665 0.115291 7.17054C0.346802 8.33443 0.918247 9.40352 1.75736 10.2426C2.59648 11.0818 3.66557 11.6532 4.82946 11.8847C5.99335 12.1162 7.19975 11.9974 8.2961 11.5433C9.39246 11.0891 10.3295 10.3201 10.9888 9.33342C11.6481 8.34672 12 7.18669 12 6C12 4.4087 11.3679 2.88258 10.2426 1.75736C9.11742 0.632141 7.5913 0 6 0ZM3.73813 4.48648L5.23951 4.51003C5.23951 4.10085 5.57957 3.83713 5.99459 3.83713C6.39924 3.83713 6.6672 4.13997 6.6672 4.48648C6.6672 4.86246 6.53296 4.99191 5.99459 5.29894C5.39397 5.64146 5.13942 6.04075 5.15414 6.77373V6.94489H6.56033V6.74335C6.56033 6.39628 6.75287 6.28922 7.18692 6.04784C7.25495 6.01001 7.32892 5.96888 7.40902 5.923C8.04388 5.56056 8.24826 5.01241 8.24826 4.37993C8.24826 3.35395 7.30645 2.4877 5.9945 2.4877C4.61245 2.4877 3.75008 3.3673 3.73813 4.48648ZM5.92507 9.04305C6.48242 9.04292 6.80567 8.75617 6.80567 8.2648C6.80567 7.76934 6.48306 7.48416 5.92467 7.48416C5.36946 7.48416 5.04047 7.76934 5.04047 8.2648C5.04047 8.75697 5.3693 9.04292 5.92507 9.04305Z" fill="white"/>
</svg>
