<svg width="49" height="12" viewBox="0 0 49 12" fill="none" xmlns="http://www.w3.org/2000/svg">
<rect width="49" height="12" rx="2" fill="#B82A23"/>
<path d="M6.04688 7.72266L7.17969 3.3125H7.77344L7.70703 4.44922L6.49609 9H5.87891L6.04688 7.72266ZM5.19922 3.3125L6.11719 7.6875L6.19922 9H5.54297L4.22656 3.3125H5.19922ZM9.05859 7.67578L9.96484 3.3125H10.9414L9.625 9H8.96875L9.05859 7.67578ZM8.00391 3.3125L9.125 7.73438L9.28906 9H8.67188L7.48047 4.44922L7.41797 3.3125H8.00391ZM12.5039 3V9H11.5664V3H12.5039ZM12.3398 6.73047L12.0352 6.72656C12.0378 6.4349 12.0781 6.16536 12.1562 5.91797C12.237 5.67057 12.349 5.45573 12.4922 5.27344C12.638 5.08854 12.8125 4.94661 13.0156 4.84766C13.2188 4.74609 13.444 4.69531 13.6914 4.69531C13.8997 4.69531 14.0872 4.72396 14.2539 4.78125C14.4232 4.83854 14.569 4.93099 14.6914 5.05859C14.8138 5.18359 14.9062 5.34766 14.9688 5.55078C15.0339 5.7513 15.0664 5.99609 15.0664 6.28516V9H14.1211V6.27734C14.1211 6.07422 14.0911 5.91276 14.0312 5.79297C13.974 5.67318 13.8893 5.58724 13.7773 5.53516C13.6654 5.48047 13.5286 5.45312 13.3672 5.45312C13.1979 5.45312 13.0482 5.48698 12.918 5.55469C12.7904 5.6224 12.6836 5.71484 12.5977 5.83203C12.5117 5.94922 12.4466 6.08464 12.4023 6.23828C12.3607 6.39193 12.3398 6.55599 12.3398 6.73047ZM17.0273 4.77344V9H16.082V4.77344H17.0273ZM16.0195 3.66406C16.0195 3.52083 16.0664 3.40234 16.1602 3.30859C16.2565 3.21224 16.3893 3.16406 16.5586 3.16406C16.7253 3.16406 16.8568 3.21224 16.9531 3.30859C17.0495 3.40234 17.0977 3.52083 17.0977 3.66406C17.0977 3.80469 17.0495 3.92188 16.9531 4.01562C16.8568 4.10938 16.7253 4.15625 16.5586 4.15625C16.3893 4.15625 16.2565 4.10938 16.1602 4.01562C16.0664 3.92188 16.0195 3.80469 16.0195 3.66406ZM19.9961 4.77344V5.46094H17.6133V4.77344H19.9961ZM18.3008 3.73828H19.2422V7.83203C19.2422 7.96224 19.2604 8.0625 19.2969 8.13281C19.3359 8.20052 19.3893 8.24609 19.457 8.26953C19.5247 8.29297 19.6042 8.30469 19.6953 8.30469C19.7604 8.30469 19.8229 8.30078 19.8828 8.29297C19.9427 8.28516 19.9909 8.27734 20.0273 8.26953L20.0312 8.98828C19.9531 9.01172 19.862 9.03255 19.7578 9.05078C19.6562 9.06901 19.5391 9.07812 19.4062 9.07812C19.1901 9.07812 18.9987 9.04036 18.832 8.96484C18.6654 8.88672 18.5352 8.76042 18.4414 8.58594C18.3477 8.41146 18.3008 8.17969 18.3008 7.89062V3.73828ZM22.5859 9.07812C22.2734 9.07812 21.9909 9.02734 21.7383 8.92578C21.4883 8.82161 21.2747 8.67708 21.0977 8.49219C20.9232 8.30729 20.7891 8.08984 20.6953 7.83984C20.6016 7.58984 20.5547 7.32031 20.5547 7.03125V6.875C20.5547 6.54427 20.6029 6.24479 20.6992 5.97656C20.7956 5.70833 20.9297 5.47917 21.1016 5.28906C21.2734 5.09635 21.4766 4.94922 21.7109 4.84766C21.9453 4.74609 22.1992 4.69531 22.4727 4.69531C22.7747 4.69531 23.0391 4.74609 23.2656 4.84766C23.4922 4.94922 23.6797 5.09245 23.8281 5.27734C23.9792 5.45964 24.0911 5.67708 24.1641 5.92969C24.2396 6.18229 24.2773 6.46094 24.2773 6.76562V7.16797H21.0117V6.49219H23.3477V6.41797C23.3424 6.2487 23.3086 6.08984 23.2461 5.94141C23.1862 5.79297 23.0938 5.67318 22.9688 5.58203C22.8438 5.49089 22.6771 5.44531 22.4688 5.44531C22.3125 5.44531 22.1732 5.47917 22.0508 5.54688C21.931 5.61198 21.8307 5.70703 21.75 5.83203C21.6693 5.95703 21.6068 6.10807 21.5625 6.28516C21.5208 6.45964 21.5 6.65625 21.5 6.875V7.03125C21.5 7.21615 21.5247 7.38802 21.5742 7.54688C21.6263 7.70312 21.7018 7.83984 21.8008 7.95703C21.8997 8.07422 22.0195 8.16667 22.1602 8.23438C22.3008 8.29948 22.4609 8.33203 22.6406 8.33203C22.8672 8.33203 23.069 8.28646 23.2461 8.19531C23.4232 8.10417 23.5768 7.97526 23.707 7.80859L24.2031 8.28906C24.112 8.42188 23.9935 8.54948 23.8477 8.67188C23.7018 8.79167 23.5234 8.88932 23.3125 8.96484C23.1042 9.04036 22.862 9.07812 22.5859 9.07812ZM25.957 5.58594V10.625H25.0156V4.77344H25.8828L25.957 5.58594ZM28.7109 6.84766V6.92969C28.7109 7.23698 28.6745 7.52214 28.6016 7.78516C28.5312 8.04557 28.4258 8.27344 28.2852 8.46875C28.1471 8.66146 27.9766 8.8112 27.7734 8.91797C27.5703 9.02474 27.3359 9.07812 27.0703 9.07812C26.8073 9.07812 26.5768 9.02995 26.3789 8.93359C26.1836 8.83464 26.0182 8.69531 25.8828 8.51562C25.7474 8.33594 25.638 8.125 25.5547 7.88281C25.474 7.63802 25.4167 7.36979 25.3828 7.07812V6.76172C25.4167 6.45182 25.474 6.17057 25.5547 5.91797C25.638 5.66536 25.7474 5.44792 25.8828 5.26562C26.0182 5.08333 26.1836 4.94271 26.3789 4.84375C26.5742 4.74479 26.8021 4.69531 27.0625 4.69531C27.3281 4.69531 27.5638 4.7474 27.7695 4.85156C27.9753 4.95312 28.1484 5.09896 28.2891 5.28906C28.4297 5.47656 28.5352 5.70312 28.6055 5.96875C28.6758 6.23177 28.7109 6.52474 28.7109 6.84766ZM27.7695 6.92969V6.84766C27.7695 6.65234 27.7513 6.47135 27.7148 6.30469C27.6784 6.13542 27.6211 5.98698 27.543 5.85938C27.4648 5.73177 27.3646 5.63281 27.2422 5.5625C27.1224 5.48958 26.9779 5.45312 26.8086 5.45312C26.6419 5.45312 26.4987 5.48177 26.3789 5.53906C26.2591 5.59375 26.1589 5.67057 26.0781 5.76953C25.9974 5.86849 25.9349 5.98438 25.8906 6.11719C25.8464 6.2474 25.8151 6.38932 25.7969 6.54297V7.30078C25.8281 7.48828 25.8815 7.66016 25.957 7.81641C26.0326 7.97266 26.1393 8.09766 26.2773 8.19141C26.418 8.28255 26.5977 8.32812 26.8164 8.32812C26.9857 8.32812 27.1302 8.29167 27.25 8.21875C27.3698 8.14583 27.4674 8.04557 27.543 7.91797C27.6211 7.78776 27.6784 7.63802 27.7148 7.46875C27.7513 7.29948 27.7695 7.11979 27.7695 6.92969ZM31.8945 8.15234V6.13672C31.8945 5.98568 31.8672 5.85547 31.8125 5.74609C31.7578 5.63672 31.6745 5.55208 31.5625 5.49219C31.4531 5.43229 31.3151 5.40234 31.1484 5.40234C30.9948 5.40234 30.862 5.42839 30.75 5.48047C30.638 5.53255 30.5508 5.60286 30.4883 5.69141C30.4258 5.77995 30.3945 5.88021 30.3945 5.99219H29.457C29.457 5.82552 29.4974 5.66406 29.5781 5.50781C29.6589 5.35156 29.776 5.21224 29.9297 5.08984C30.0833 4.96745 30.2669 4.87109 30.4805 4.80078C30.694 4.73047 30.9336 4.69531 31.1992 4.69531C31.5169 4.69531 31.7982 4.7487 32.043 4.85547C32.2904 4.96224 32.4844 5.1237 32.625 5.33984C32.7682 5.55339 32.8398 5.82161 32.8398 6.14453V8.02344C32.8398 8.21615 32.8529 8.38932 32.8789 8.54297C32.9076 8.69401 32.9479 8.82552 33 8.9375V9H32.0352C31.9909 8.89844 31.9557 8.76953 31.9297 8.61328C31.9062 8.45443 31.8945 8.30078 31.8945 8.15234ZM32.0312 6.42969L32.0391 7.01172H31.3633C31.1888 7.01172 31.0352 7.02865 30.9023 7.0625C30.7695 7.09375 30.6589 7.14062 30.5703 7.20312C30.4818 7.26562 30.4154 7.34115 30.3711 7.42969C30.3268 7.51823 30.3047 7.61849 30.3047 7.73047C30.3047 7.84245 30.3307 7.94531 30.3828 8.03906C30.4349 8.13021 30.5104 8.20182 30.6094 8.25391C30.7109 8.30599 30.8333 8.33203 30.9766 8.33203C31.1693 8.33203 31.3372 8.29297 31.4805 8.21484C31.6263 8.13411 31.7409 8.03646 31.8242 7.92188C31.9076 7.80469 31.9518 7.69401 31.957 7.58984L32.2617 8.00781C32.2305 8.11458 32.1771 8.22917 32.1016 8.35156C32.026 8.47396 31.9271 8.59115 31.8047 8.70312C31.6849 8.8125 31.5404 8.90234 31.3711 8.97266C31.2044 9.04297 31.0117 9.07812 30.793 9.07812C30.5169 9.07812 30.2708 9.02344 30.0547 8.91406C29.8385 8.80208 29.6693 8.65234 29.5469 8.46484C29.4245 8.27474 29.3633 8.0599 29.3633 7.82031C29.3633 7.59635 29.4049 7.39844 29.4883 7.22656C29.5742 7.05208 29.6992 6.90625 29.8633 6.78906C30.0299 6.67188 30.2331 6.58333 30.4727 6.52344C30.7122 6.46094 30.9857 6.42969 31.293 6.42969H32.0312ZM34.7695 5.58594V10.625H33.8281V4.77344H34.6953L34.7695 5.58594ZM37.5234 6.84766V6.92969C37.5234 7.23698 37.487 7.52214 37.4141 7.78516C37.3438 8.04557 37.2383 8.27344 37.0977 8.46875C36.9596 8.66146 36.7891 8.8112 36.5859 8.91797C36.3828 9.02474 36.1484 9.07812 35.8828 9.07812C35.6198 9.07812 35.3893 9.02995 35.1914 8.93359C34.9961 8.83464 34.8307 8.69531 34.6953 8.51562C34.5599 8.33594 34.4505 8.125 34.3672 7.88281C34.2865 7.63802 34.2292 7.36979 34.1953 7.07812V6.76172C34.2292 6.45182 34.2865 6.17057 34.3672 5.91797C34.4505 5.66536 34.5599 5.44792 34.6953 5.26562C34.8307 5.08333 34.9961 4.94271 35.1914 4.84375C35.3867 4.74479 35.6146 4.69531 35.875 4.69531C36.1406 4.69531 36.3763 4.7474 36.582 4.85156C36.7878 4.95312 36.9609 5.09896 37.1016 5.28906C37.2422 5.47656 37.3477 5.70312 37.418 5.96875C37.4883 6.23177 37.5234 6.52474 37.5234 6.84766ZM36.582 6.92969V6.84766C36.582 6.65234 36.5638 6.47135 36.5273 6.30469C36.4909 6.13542 36.4336 5.98698 36.3555 5.85938C36.2773 5.73177 36.1771 5.63281 36.0547 5.5625C35.9349 5.48958 35.7904 5.45312 35.6211 5.45312C35.4544 5.45312 35.3112 5.48177 35.1914 5.53906C35.0716 5.59375 34.9714 5.67057 34.8906 5.76953C34.8099 5.86849 34.7474 5.98438 34.7031 6.11719C34.6589 6.2474 34.6276 6.38932 34.6094 6.54297V7.30078C34.6406 7.48828 34.694 7.66016 34.7695 7.81641C34.8451 7.97266 34.9518 8.09766 35.0898 8.19141C35.2305 8.28255 35.4102 8.32812 35.6289 8.32812C35.7982 8.32812 35.9427 8.29167 36.0625 8.21875C36.1823 8.14583 36.2799 8.04557 36.3555 7.91797C36.4336 7.78776 36.4909 7.63802 36.5273 7.46875C36.5638 7.29948 36.582 7.11979 36.582 6.92969ZM40.1875 9.07812C39.875 9.07812 39.5924 9.02734 39.3398 8.92578C39.0898 8.82161 38.8763 8.67708 38.6992 8.49219C38.5247 8.30729 38.3906 8.08984 38.2969 7.83984C38.2031 7.58984 38.1562 7.32031 38.1562 7.03125V6.875C38.1562 6.54427 38.2044 6.24479 38.3008 5.97656C38.3971 5.70833 38.5312 5.47917 38.7031 5.28906C38.875 5.09635 39.0781 4.94922 39.3125 4.84766C39.5469 4.74609 39.8008 4.69531 40.0742 4.69531C40.3763 4.69531 40.6406 4.74609 40.8672 4.84766C41.0938 4.94922 41.2812 5.09245 41.4297 5.27734C41.5807 5.45964 41.6927 5.67708 41.7656 5.92969C41.8411 6.18229 41.8789 6.46094 41.8789 6.76562V7.16797H38.6133V6.49219H40.9492V6.41797C40.944 6.2487 40.9102 6.08984 40.8477 5.94141C40.7878 5.79297 40.6953 5.67318 40.5703 5.58203C40.4453 5.49089 40.2786 5.44531 40.0703 5.44531C39.9141 5.44531 39.7747 5.47917 39.6523 5.54688C39.5326 5.61198 39.4323 5.70703 39.3516 5.83203C39.2708 5.95703 39.2083 6.10807 39.1641 6.28516C39.1224 6.45964 39.1016 6.65625 39.1016 6.875V7.03125C39.1016 7.21615 39.1263 7.38802 39.1758 7.54688C39.2279 7.70312 39.3034 7.83984 39.4023 7.95703C39.5013 8.07422 39.6211 8.16667 39.7617 8.23438C39.9023 8.29948 40.0625 8.33203 40.2422 8.33203C40.4688 8.33203 40.6706 8.28646 40.8477 8.19531C41.0247 8.10417 41.1784 7.97526 41.3086 7.80859L41.8047 8.28906C41.7135 8.42188 41.5951 8.54948 41.4492 8.67188C41.3034 8.79167 41.125 8.88932 40.9141 8.96484C40.7057 9.04036 40.4635 9.07812 40.1875 9.07812ZM43.5586 5.57812V9H42.6172V4.77344H43.5156L43.5586 5.57812ZM44.8516 4.74609L44.8438 5.62109C44.7865 5.61068 44.724 5.60286 44.6562 5.59766C44.5911 5.59245 44.526 5.58984 44.4609 5.58984C44.2995 5.58984 44.1576 5.61328 44.0352 5.66016C43.9128 5.70443 43.8099 5.76953 43.7266 5.85547C43.6458 5.9388 43.5833 6.04036 43.5391 6.16016C43.4948 6.27995 43.4688 6.41406 43.4609 6.5625L43.2461 6.57812C43.2461 6.3125 43.2721 6.06641 43.3242 5.83984C43.3763 5.61328 43.4544 5.41406 43.5586 5.24219C43.6654 5.07031 43.7982 4.9362 43.957 4.83984C44.1185 4.74349 44.3047 4.69531 44.5156 4.69531C44.5729 4.69531 44.6341 4.70052 44.6992 4.71094C44.7669 4.72135 44.8177 4.73307 44.8516 4.74609Z" fill="white"/>
</svg>
